<?xml version="1.0"?>
<svg xmlns="http://www.w3.org/2000/svg" xmlns:xlink="http://www.w3.org/1999/xlink" xmlns:svgjs="http://svgjs.com/svgjs" version="1.1" width="512" height="512" x="0" y="0" viewBox="0 0 512 512" style="enable-background:new 0 0 512 512" xml:space="preserve" class=""><g><g xmlns="http://www.w3.org/2000/svg"><path d="m287.648 157.501c103.272 0 182.115-22.491 182.115-65.455-.001-37.841-84.185-92.046-215.429-92.046-40.303.851-82.278 4.22-117.752 25.218-148.337 87.805-100.54 461.32-1.818 485.126 84.838 20.459 100.106-154.497 105.134-201.116 12.581.34 25.19.22 37.757-.489 82.072-4.635 115.486-32.489 115.486-53.056v-1.023c0-20.318-32.604-47.748-112.517-52.879-13.552-.87-27.153-1.033-40.726-.666v-45.205c13.593.919 30.604 1.591 47.75 1.591z" fill="#94c7ef" data-original="#ffd70d" style="" class=""/><g fill="#fcc600"><path d="m280.624 201.781c-13.552-.87-27.153-1.033-40.726-.666v-43.647c-14.884-.143-29.347-.757-41.207-1.559v45.205c13.573-.366 27.174-.204 40.726.666 79.913 5.131 112.517 32.561 112.517 52.879v1.023c0 20.567-33.414 48.421-115.486 53.056-12.567.71-25.175.829-37.757.489-4.284 39.718-16.001 172.591-71.842 198.405 2.6 1.147 5.237 2.066 7.915 2.711 84.838 20.459 100.106-154.497 105.134-201.116 12.581.34 25.19.22 37.757-.489 82.072-4.635 115.486-32.489 115.486-53.056v-1.023c0-20.317-32.604-47.747-112.517-52.878z" fill="#016df0" data-original="#fcc600" style="" class=""/><path d="m254.334 0c-5.913.125-11.862.307-17.822.588 117.772 5.941 192.043 55.916 192.043 91.458 0 40.072-68.59 62.331-161.614 65.146 6.732.195 13.706.309 20.706.309 103.272 0 182.115-22.491 182.115-65.455 0-37.841-84.184-92.046-215.428-92.046z" fill="#016df0" data-original="#fcc600" style="" class=""/></g><path d="m119.665 452.408c-2.855 0-5.601-1.589-6.943-4.325-22.188-45.241-35.971-98.565-35.971-139.162 0-4.267 3.459-7.726 7.726-7.726s7.726 3.459 7.726 7.726c0 37.804 13.5 89.758 34.393 132.358 1.879 3.831.296 8.46-3.535 10.34-1.094.535-2.253.789-3.396.789z" fill="#ffffff" data-original="#ffffff" style="" class=""/></g></g></svg>
